<svg width="20" height="20" viewBox="0 0 20 20" fill="none" xmlns="http://www.w3.org/2000/svg">
<path opacity="0.4" d="M14.084 0L5.916 0C2.377 0 0 2.276 0 5.665L0 14.335C0 17.724 2.377 20 5.916 20L14.084 20C17.622 20 20 17.723 20 14.334L20 5.665C20 2.276 17.622 0 14.084 0Z" fill="url(#paint0_linear_702_91)"/>
<path d="M9.14503 5.72082L5.38003 9.46882C5.09703 9.75082 5.09703 10.2498 5.38003 10.5328L9.14503 14.2808C9.43903 14.5728 9.91403 14.5718 10.206 14.2778C10.498 13.9838 10.498 13.5098 10.204 13.2168L7.72703 10.7498H14.082C14.497 10.7498 14.832 10.4138 14.832 9.99982C14.832 9.58582 14.497 9.24982 14.082 9.24982L7.72703 9.24982L10.204 6.78382C10.351 6.63682 10.424 6.44482 10.424 6.25182C10.424 6.06082 10.351 5.86882 10.206 5.72282C9.91403 5.42982 9.43903 5.42882 9.14503 5.72082Z" fill="url(#paint1_linear_702_91)"/>
<defs>
<linearGradient id="paint0_linear_702_91" x1="25.1316" y1="-1.44927" x2="-5.72395" y2="14.9337" gradientUnits="userSpaceOnUse">
<stop stop-color="#FFC881"/>
<stop offset="1" stop-color="#DA8517"/>
</linearGradient>
<linearGradient id="paint1_linear_702_91" x1="17.3117" y1="4.85051" x2="2.89007" y2="13.076" gradientUnits="userSpaceOnUse">
<stop stop-color="#FFC881"/>
<stop offset="1" stop-color="#DA8517"/>
</linearGradient>
</defs>
</svg>
