<svg width="92" height="86" viewBox="0 0 92 86" fill="none" xmlns="http://www.w3.org/2000/svg">
<path d="M8.19886 69.7377H10.6591V77.2945C10.6591 78.143 10.4564 78.8854 10.0511 79.5218C9.64962 80.1581 9.08712 80.6543 8.36364 81.0104C7.64015 81.3627 6.79735 81.5388 5.83523 81.5388C4.86932 81.5388 4.02462 81.3627 3.30114 81.0104C2.57765 80.6543 2.01515 80.1581 1.61364 79.5218C1.21212 78.8854 1.01136 78.143 1.01136 77.2945V69.7377H3.47159V77.0843C3.47159 77.5274 3.56818 77.9214 3.76136 78.2661C3.95833 78.6108 4.23485 78.8816 4.59091 79.0786C4.94697 79.2755 5.36174 79.374 5.83523 79.374C6.3125 79.374 6.72727 79.2755 7.07955 79.0786C7.43561 78.8816 7.71023 78.6108 7.90341 78.2661C8.10038 77.9214 8.19886 77.5274 8.19886 77.0843V69.7377ZM12.6832 81.374V69.7377H17.2741C18.1529 69.7377 18.9029 69.8949 19.5241 70.2093C20.1491 70.5199 20.6245 70.9611 20.9503 71.5331C21.2798 72.1013 21.4446 72.7699 21.4446 73.5388C21.4446 74.3115 21.2779 74.9763 20.9446 75.5331C20.6113 76.0861 20.1283 76.5104 19.4957 76.8058C18.867 77.1013 18.1056 77.249 17.2116 77.249H14.1378V75.2718H16.8139C17.2836 75.2718 17.6738 75.2074 17.9844 75.0786C18.295 74.9498 18.526 74.7566 18.6776 74.499C18.8329 74.2414 18.9105 73.9214 18.9105 73.5388C18.9105 73.1524 18.8329 72.8267 18.6776 72.5615C18.526 72.2964 18.2931 72.0956 17.9787 71.9593C17.6681 71.8191 17.276 71.749 16.8026 71.749H15.1435V81.374H12.6832ZM18.9673 76.0786L21.8594 81.374H19.1435L16.3139 76.0786H18.9673ZM23.1832 81.374V69.7377H27.8423C28.6984 69.7377 29.4124 69.8646 29.9844 70.1183C30.5563 70.3721 30.9863 70.7244 31.2741 71.1752C31.562 71.6221 31.706 72.1373 31.706 72.7206C31.706 73.1752 31.6151 73.5748 31.4332 73.9195C31.2514 74.2604 31.0014 74.5407 30.6832 74.7604C30.3688 74.9763 30.009 75.1297 29.6037 75.2206V75.3343C30.0469 75.3532 30.4616 75.4782 30.848 75.7093C31.2382 75.9403 31.5545 76.2642 31.7969 76.6808C32.0393 77.0937 32.1605 77.5861 32.1605 78.1581C32.1605 78.7755 32.0071 79.3267 31.7003 79.8115C31.3973 80.2926 30.9484 80.6733 30.3537 80.9536C29.759 81.2339 29.026 81.374 28.1548 81.374H23.1832ZM25.6435 79.3627H27.6491C28.3348 79.3627 28.8348 79.232 29.1491 78.9706C29.4635 78.7055 29.6207 78.3532 29.6207 77.9138C29.6207 77.5918 29.5431 77.3077 29.3878 77.0615C29.2325 76.8153 29.0109 76.6221 28.723 76.482C28.4389 76.3418 28.0999 76.2718 27.706 76.2718H25.6435V79.3627ZM25.6435 74.607H27.4673C27.8045 74.607 28.1037 74.5483 28.3651 74.4308C28.6302 74.3096 28.8385 74.1392 28.9901 73.9195C29.1454 73.6998 29.223 73.4365 29.223 73.1297C29.223 72.7093 29.0734 72.3702 28.7741 72.1127C28.4787 71.8551 28.0582 71.7263 27.5128 71.7263H25.6435V74.607ZM35.767 81.374H33.1307L37.1477 69.7377H40.3182L44.3295 81.374H41.6932L38.7784 72.3968H38.6875L35.767 81.374ZM35.6023 76.8002H41.8295V78.7206H35.6023V76.8002ZM55.4631 69.7377V81.374H53.3381L48.2756 74.0502H48.1903V81.374H45.7301V69.7377H47.8892L52.9119 77.0558H53.0142V69.7377H55.4631ZM70.9318 69.7377V81.374H68.8068L63.7443 74.0502H63.6591V81.374H61.1989V69.7377H63.358L68.3807 77.0558H68.483V69.7377H70.9318ZM72.9645 81.374V69.7377H80.669V71.7661H75.4247V74.5388H80.1577V76.5672H75.4247V81.374H72.9645ZM81.8807 71.7661V69.7377H91.4375V71.7661H87.875V81.374H85.4432V71.7661H81.8807Z" fill="url(#paint0_linear_33_515)"/>
<path fill-rule="evenodd" clip-rule="evenodd" d="M53.2154 3.66228L53.3434 3.07526C54.1805 -0.765009 59.5261 -1.10443 60.8422 2.59911C60.9902 3.01564 61.0665 3.45427 61.0678 3.89632L61.1694 39.6313C64.7405 40.6312 65.0823 45.5775 61.6638 47.0518C61.1704 47.2645 60.6388 47.3743 60.1015 47.3743H31.0042C26.5198 47.3743 25.4312 41.1266 29.6514 39.61C30.0019 39.484 30.3679 39.4077 30.7387 39.3831C29.8018 37.5415 29.3333 35.4523 29.3333 33.1157V8.55607H37.329V32.4325C37.329 33.8728 37.643 35.1531 38.2708 36.2734C38.911 37.3937 39.8096 38.2739 40.9668 38.914C41.289 39.0922 41.6259 39.2457 41.9777 39.3743H48.0515C48.4017 39.2457 48.7362 39.0922 49.0549 38.914C50.2121 38.2739 51.1046 37.3937 51.7325 36.2734C52.3726 35.1531 52.6927 33.8728 52.6927 32.4325V8.55607H53.1333L53.1219 4.54257C53.121 4.24661 53.1524 3.95144 53.2154 3.66228Z" fill="url(#paint1_linear_33_515)"/>
<defs>
<linearGradient id="paint0_linear_33_515" x1="-6.66666" y1="61.499" x2="-2.59521" y2="98.629" gradientUnits="userSpaceOnUse">
<stop stop-color="#FFC881"/>
<stop offset="1" stop-color="#DA8517"/>
</linearGradient>
<linearGradient id="paint1_linear_33_515" x1="24.3154" y1="-12.1552" x2="67.857" y2="51.974" gradientUnits="userSpaceOnUse">
<stop stop-color="#FFC881"/>
<stop offset="1" stop-color="#DA8517"/>
</linearGradient>
</defs>
</svg>
