<svg width="22" height="22" viewBox="0 0 22 22" fill="none" xmlns="http://www.w3.org/2000/svg">
<path d="M14.7715 14.7711C12.6887 16.8539 9.31184 16.8539 7.22905 14.7711M14.7715 14.7711C16.8543 12.6883 16.8543 9.3114 14.7715 7.2286M14.7715 14.7711L17.6 17.5995M7.22905 14.7711C5.14625 12.6883 5.14625 9.3114 7.22905 7.2286M7.22905 14.7711L4.40066 17.5995M14.7715 7.2286C12.6887 5.1458 9.31184 5.1458 7.22905 7.2286M14.7715 7.2286L17.6 4.40017M7.22905 7.2286L4.40066 4.40017M17.6 17.5995C13.9551 21.2444 8.04556 21.2444 4.40066 17.5995M17.6 17.5995C21.2449 13.9546 21.2449 8.04507 17.6 4.40017M4.40066 17.5995C0.755769 13.9546 0.755769 8.04507 4.40066 4.40017M17.6 4.40017C13.9551 0.755281 8.04556 0.75528 4.40066 4.40017" stroke="url(#paint0_linear_33_540)" stroke-width="1.5"/>
<defs>
<linearGradient id="paint0_linear_33_540" x1="0.314336" y1="-3.12297" x2="15.6051" y2="25.6755" gradientUnits="userSpaceOnUse">
<stop stop-color="#FFC881"/>
<stop offset="1" stop-color="#DA8517"/>
</linearGradient>
</defs>
</svg>
